<svg id="Layer_1" data-name="Layer 1" xmlns="http://www.w3.org/2000/svg" viewBox="0 0 512 512"><defs><style>.cls-2{fill:#4c4c4c}</style></defs><circle cx="256" cy="256" r="256" style="fill:#fff"/><path class="cls-2" d="M256.64 71.1a87.79 87.79 0 1 0 87.79 87.78 87.88 87.88 0 0 0-87.79-87.78Zm0 163.37a75.57 75.57 0 1 1 75.57-75.57 75.66 75.66 0 0 1-75.57 75.57ZM145 440.89a87.78 87.78 0 1 0-87.8-87.78 87.87 87.87 0 0 0 87.8 87.78Zm0-163.36a75.57 75.57 0 1 1-75.58 75.57A75.65 75.65 0 0 1 145 277.53ZM367 265.31a87.79 87.79 0 1 0 87.8 87.79 87.89 87.89 0 0 0-87.8-87.79Zm0 163.36a75.56 75.56 0 1 1 75.56-75.56A75.66 75.66 0 0 1 367 428.67Z"/></svg>