<svg id="Layer_1" data-name="Layer 1" xmlns="http://www.w3.org/2000/svg" viewBox="0 0 512 512"><defs><style>.cls-1 {
  fill: #fff;
}

.cls-2 {
  fill: #4c4c4c;
}

</style></defs><circle class="cls-1" cx="256" cy="256" r="256"></circle><path class="cls-2" d="M256.64,71.1a87.79,87.79,0,1,0,87.79,87.78A87.88,87.88,0,0,0,256.64,71.1Zm0,163.37a75.57,75.57,0,1,1,75.57-75.57A75.66,75.66,0,0,1,256.64,234.47Z" transform="translate(0)"></path><path class="cls-2" d="M145,440.89A87.78,87.78,0,1,0,57.2,353.11,87.87,87.87,0,0,0,145,440.89Zm0-163.36A75.57,75.57,0,1,1,69.42,353.1,75.65,75.65,0,0,1,145,277.53Z" transform="translate(0)"></path><path class="cls-2" d="M367,265.31A87.79,87.79,0,1,0,454.8,353.1,87.89,87.89,0,0,0,367,265.31Zm0,163.36a75.56,75.56,0,1,1,75.56-75.56A75.66,75.66,0,0,1,367,428.67Z" transform="translate(0)"></path></svg>